<svg id="visual" viewBox="0 0 900 600" width="900" height="600" xmlns="http://www.w3.org/2000/svg" xmlns:xlink="http://www.w3.org/1999/xlink" version="1.1"><path d="M0 275L18.8 273C37.7 271 75.3 267 112.8 279C150.3 291 187.7 319 225.2 332.8C262.7 346.7 300.3 346.3 337.8 336.8C375.3 327.3 412.7 308.7 450.2 309.8C487.7 311 525.3 332 562.8 330C600.3 328 637.7 303 675.2 295.5C712.7 288 750.3 298 787.8 303.8C825.3 309.7 862.7 311.3 881.3 312.2L900 313L900 0L881.3 0C862.7 0 825.3 0 787.8 0C750.3 0 712.7 0 675.2 0C637.7 0 600.3 0 562.8 0C525.3 0 487.7 0 450.2 0C412.7 0 375.3 0 337.8 0C300.3 0 262.7 0 225.2 0C187.7 0 150.3 0 112.8 0C75.3 0 37.7 0 18.8 0L0 0Z" fill="#5c8dec" stroke-linecap="round" stroke-linejoin="miter"></path></svg>